<?xml version="1.0" encoding="utf-8"?><!-- Uploaded to: SVG Repo, www.svgrepo.com, Generator: SVG Repo Mixer Tools -->
<svg width="800px" height="800px" viewBox="0 0 24 24" fill="none" xmlns="http://www.w3.org/2000/svg">
<path opacity="0.5" d="M 2 12 C 2 7.3 2 4.9 3.5 3.5 C 4.9 2 7.3 2 12 2 C 16.7 2 19.1 2 20.5 3.5 C 22 4.9 22 7.3 22 12 C 22 16.7 22 19.1 20.5 20.5 C 19.1 22 16.7 22 12 22 C 7.3 22 4.9 22 3.5 20.5 C 2 19.1 2 16.7 2 12 Z" fill="#2563eb"/>
<path d="M 13.5 6.4 C 13.9 6.6 14.1 7 14 7.4 L 11.4 17 C 11.3 17.4 10.9 17.7 10.5 17.6 C 10.1 17.4 9.9 17 10 16.6 L 12.6 7 C 12.7 6.6 13.1 6.3 13.5 6.4 Z" fill="#dbeafe"/>
<path d="M 15 8.5 C 15.3 8.2 15.7 8.2 16 8.5 L 16.2 8.7 C 16.9 9.3 17.4 9.8 17.8 10.3 C 18.2 10.8 18.4 11.4 18.4 12 C 18.4 12.6 18.2 13.2 17.8 13.7 C 17.4 14.2 16.9 14.7 16.2 15.3 L 16 15.5 C 15.7 15.8 15.3 15.8 15 15.5 C 14.7 15.2 14.7 14.8 15 14.5 L 15.1 14.3 C 15.8 13.6 16.3 13.2 16.6 12.8 C 16.9 12.4 16.9 12.2 16.9 12 C 16.9 11.8 16.9 11.6 16.6 11.2 C 16.3 10.8 15.8 10.4 15.1 9.7 L 15 9.5 C 14.7 9.2 14.7 8.8 15 8.5 Z" fill="#dbeafe"/>
<path d="M 8 8.5 C 8.3 8.2 8.7 8.2 9 8.5 C 9.3 8.8 9.3 9.2 9 9.5 L 8.9 9.7 C 8.2 10.4 7.7 10.8 7.4 11.2 C 7.1 11.6 7.1 11.8 7.1 12 C 7.1 12.2 7.1 12.4 7.4 12.8 C 7.7 13.2 8.2 13.6 8.9 14.3 L 9 14.5 C 9.3 14.8 9.3 15.2 9 15.5 C 8.7 15.8 8.3 15.8 8 15.5 L 7.8 15.3 C 7.1 14.7 6.6 14.2 6.2 13.7 C 5.8 13.2 5.6 12.6 5.6 12 C 5.6 11.4 5.8 10.8 6.2 10.3 C 6.6 9.8 7.1 9.3 7.8 8.7 L 8 8.5 Z" fill="#dbeafe"/>
</svg>
